<?xml version="1.0" standalone="no"?>
<svg xmlns:xlink="http://www.w3.org/1999/xlink" id="wave" style="transform:rotate(180deg); transition: 0.3s" viewBox="0 0 1440 490" version="1.1" xmlns="http://www.w3.org/2000/svg"><defs><linearGradient id="sw-gradient-0" x1="0" x2="0" y1="1" y2="0"><stop stop-color="rgba(252, 208, 202, 1)" offset="0%"/><stop stop-color="rgba(252, 208, 202, 1)" offset="100%"/></linearGradient></defs><path style="transform:translate(0, 0px); opacity:1" fill="url(#sw-gradient-0)" d="M0,294L34.3,318.5C68.6,343,137,392,206,359.3C274.3,327,343,212,411,163.3C480,114,549,131,617,155.2C685.7,180,754,212,823,212.3C891.4,212,960,180,1029,138.8C1097.1,98,1166,49,1234,32.7C1302.9,16,1371,33,1440,65.3C1508.6,98,1577,147,1646,155.2C1714.3,163,1783,131,1851,147C1920,163,1989,229,2057,269.5C2125.7,310,2194,327,2263,326.7C2331.4,327,2400,310,2469,269.5C2537.1,229,2606,163,2674,187.8C2742.9,212,2811,327,2880,375.7C2948.6,425,3017,408,3086,351.2C3154.3,294,3223,196,3291,147C3360,98,3429,98,3497,155.2C3565.7,212,3634,327,3703,351.2C3771.4,376,3840,310,3909,269.5C3977.1,229,4046,212,4114,196C4182.9,180,4251,163,4320,179.7C4388.6,196,4457,245,4526,294C4594.3,343,4663,392,4731,351.2C4800,310,4869,180,4903,114.3L4937.1,49L4937.1,490L4902.9,490C4868.6,490,4800,490,4731,490C4662.9,490,4594,490,4526,490C4457.1,490,4389,490,4320,490C4251.4,490,4183,490,4114,490C4045.7,490,3977,490,3909,490C3840,490,3771,490,3703,490C3634.3,490,3566,490,3497,490C3428.6,490,3360,490,3291,490C3222.9,490,3154,490,3086,490C3017.1,490,2949,490,2880,490C2811.4,490,2743,490,2674,490C2605.7,490,2537,490,2469,490C2400,490,2331,490,2263,490C2194.3,490,2126,490,2057,490C1988.6,490,1920,490,1851,490C1782.9,490,1714,490,1646,490C1577.1,490,1509,490,1440,490C1371.4,490,1303,490,1234,490C1165.7,490,1097,490,1029,490C960,490,891,490,823,490C754.3,490,686,490,617,490C548.6,490,480,490,411,490C342.9,490,274,490,206,490C137.1,490,69,490,34,490L0,490Z"/></svg>